<?xml version="1.0" encoding="UTF-8"?>
<svg xmlns="http://www.w3.org/2000/svg" version="1.1" viewBox="0 0 590.4 800">
  <!-- Generator: Adobe Illustrator 28.7.1, SVG Export Plug-In . SVG Version: 1.2.0 Build 142)  -->
  <g>
    <g id="Capa_1">
      <g>
        <path d="M171.5,227.7l69.4-131,31.7-59.8-5.1-9.7c-4.7-9-14.8-14.7-25.7-14.7H39.6c-9.8,0-18.9,4.6-24.2,12.1-5.2,7.5-5.8,17-1.6,25l126,237.9,31.7-59.8Z"/>
        <path d="M577.2,24.7c-5.2-7.5-14.4-12.1-24.2-12.1h-202.1c-11,0-21,5.7-25.7,14.7l-156,294.7c-.1.2-.1.5-.3.7-.2.5-.4,1.1-.6,1.6-1,2.5-1.6,5.1-1.7,7.8,0,.4-.3.7-.3,1.1v13.4c38.8-18.4,82.8-29,129.6-29s90.8,10.6,129.6,29v-7.5L578.7,49.7c4.2-8,3.7-17.5-1.6-25Z"/>
        <path d="M295.9,356.4c-131.3,0-237.7,96.5-237.7,215.6s106.4,215.5,237.7,215.5,237.7-96.5,237.7-215.5c0-119.1-106.4-215.6-237.7-215.6ZM437.2,534.3l-63.5,56.1c-2,1.8-2.9,4.3-2.4,6.8l15,79.2c.5,2.9-.8,5.8-3.4,7.5-2.6,1.7-6.1,1.9-8.9.6l-78.5-37.4c-2.5-1.2-5.4-1.2-7.9,0l-78.5,37.4c-2.8,1.3-6.3,1.1-8.9-.6-2.6-1.7-3.9-4.6-3.4-7.5l15-79.2c.5-2.5-.5-5-2.4-6.8l-63.5-56.1c-2.3-2.1-3.1-5.1-2.1-7.8,1-2.8,3.7-4.8,6.8-5.2l87.8-11.6c2.7-.4,5.1-1.9,6.3-4.2l39.2-72.1c1.4-2.6,4.4-4.3,7.6-4.3s6.1,1.7,7.6,4.3l39.2,72.1c1.2,2.3,3.6,3.8,6.3,4.2l87.8,11.6c3.1.4,5.8,2.4,6.8,5.2,1,2.8.2,5.8-2.2,7.8Z"/>
      </g>
    </g>
  </g>
</svg>