<?xml version="1.0" encoding="UTF-8"?>
<svg xmlns="http://www.w3.org/2000/svg" version="1.1" viewBox="0 0 800 800">
  <defs>
    <style>
      .cls-1 {
        fill: #231f20;
      }
    </style>
  </defs>
  <!-- Generator: Adobe Illustrator 28.7.1, SVG Export Plug-In . SVG Version: 1.2.0 Build 142)  -->
  <g>
    <g id="Layer_1">
      <g>
        <path class="cls-1" d="M514.8,313.1L656.6,38.8c4.1-5.3,2.2-22.2-17.1-23h-164.7c-7.4,0-14,3.8-17.1,9.7l-49.9,96.2-49.9-96.4c-3.1-5.8-9.7-9.7-17.1-9.7h-164.7c-20,1.3-20.3,17.5-17.1,23l141.8,274.4c-101.7,36.6-173.3,123.6-173.3,224.8s125.8,243.3,280.2,243.3,280.2-109.2,280.2-243.3-71.6-188.1-173.3-224.7h0ZM425,168.3l61.9-119.8h123.6l-127.2,246.4h-123.6l65.3-126.6h0ZM205.2,48.4h123.6l58.5,113.3-61.7,119.5L205.2,48.4ZM407.9,748.8c-133.9,0-242.8-94.5-242.8-210.8s108.9-210.8,242.8-210.8,242.8,94.5,242.8,210.8-108.9,210.8-242.8,210.8Z"/>
        <path class="cls-1" d="M636.5,472.8c-2.5-6.7-9.7-11.3-17.8-11.3h-147.4l-45.5-121.6c-2.5-6.7-9.7-11.2-17.8-11.2s-15.3,4.5-17.8,11.2l-45.5,121.6h-147.4c-8.1,0-15.3,4.5-17.8,11.3-2.5,6.7.2,14.1,6.8,18.1l119.1,75.2-45.5,121.7c-2.5,6.7.2,14.1,6.8,18.1,6.7,4.2,15.5,4.2,22.1,0l119.1-75.2,119.1,75.2c9.9,5.8,18.7,2,22.1,0,6.7-4.1,9.4-11.6,6.8-18.1l-45.5-121.6,119.1-75.2c6.7-4.2,9.4-11.6,6.8-18.3h0ZM477.4,546.9c-6.7,4.1-9.4,11.6-6.8,18.1l31.9,85.2-83.5-52.7c-3.2-2-7.2-3.1-11-3.1s-7.7,1.1-11,3.1l-83.5,52.7,31.9-85.2c2.5-6.7-.2-14.1-6.8-18.1l-83.5-52.8h103.1c8.1,0,15.3-4.5,17.8-11.3l31.9-85.2,31.9,85.2c2.5,6.7,9.7,11.3,17.8,11.3h103.5l-83.5,52.8h0Z"/>
      </g>
    </g>
  </g>
</svg>