<?xml version="1.0" encoding="UTF-8"?>
<svg xmlns="http://www.w3.org/2000/svg" version="1.1" viewBox="0 0 792 612">
  <defs>
    <style>
      .cls-1 {
        fill: #12163f;
      }

      .cls-1, .cls-2, .cls-3, .cls-4, .cls-5 {
        stroke-width: 0px;
      }

      .cls-2 {
        fill: #3b7ec0;
      }

      .cls-3 {
        fill: #f36f26;
      }

      .cls-4 {
        fill: #fff;
      }

      .cls-6 {
        display: none;
      }

      .cls-5 {
        fill: #66a5d9;
      }
    </style>
  </defs>
  <g id="Layer_2" data-name="Layer 2" class="cls-6">
    <rect class="cls-1" x="-.46" y="192.35" width="792" height="227.31"/>
  </g>
  <g id="Layer_1" data-name="Layer 1">
    <g>
      <path class="cls-4" d="M124.38,276.73c-4.23-20.27-16.04-30.3-35.2-30.3-27.18,0-43,21.39-43,58.15s16.49,58.37,44.11,58.37c12.25,0,22.72-5.12,29.18-14.04,3.79-5.35,5.35-9.8,6.68-19.16l46.34,6.91c-4.23,18.94-9.13,29.85-18.49,40.77-13.81,15.82-35.42,24.28-62.38,24.28s-50.13-8.47-65.94-24.51C9.2,360.49-.15,334.43-.15,304.58s9.36-55.92,26.96-73.3c15.37-14.93,37.87-23.17,63.94-23.17,28.74,0,51.24,9.8,65.72,29.18,7.13,9.13,10.92,17.38,13.81,30.52l-45.89,8.91Z"/>
      <path class="cls-4" d="M194.34,290.97v-45.88c0-15.37-.45-23.39-1.78-32.97h47.9c-1.34,10.47-1.78,19.16-1.78,32.97v20.97l-44.33,24.91Z"/>
      <path class="cls-4" d="M274.28,282.07h39.47v-36.98c0-15.37-.45-24.28-1.78-32.97h47.9c-1.34,9.13-1.78,17.38-1.78,32.97v119.41c0,14.48.45,22.06,1.78,32.97h-47.9c1.34-9.36,1.78-17.6,1.78-32.97v-43.22h-75.08v43.22c0,14.48.45,22.95,1.78,32.97h-47.9c1.34-9.13,1.78-17.38,1.78-32.97v-34.29l79.95-48.14Z"/>
      <path class="cls-4" d="M238.67,282.07"/>
      <path class="cls-3" d="M435.62,212.12c-1.34,9.13-1.78,16.71-1.78,32.97v119.41c0,15.37.45,23.61,1.78,32.97h-49.01c1.34-8.69,1.78-18.05,1.78-32.97v-119.41c0-16.71-.45-23.17-1.78-32.97h49.01Z"/>
      <polygon class="cls-5" points="486.15 312.24 474.36 278.91 513.55 256.73 523.59 290.04 486.15 312.24"/>
      <path class="cls-2" d="M466.84,257.67l-6.5-18.37c-4.46-12.92-6.68-18.49-10.47-27.18h52.13c.89,7.13,2.9,15.82,5.35,24.06l-40.51,21.49Z"/>
      <path class="cls-4" d="M530.07,311.54l9.59,31.8q1.78,6.02,4.23,15.37c2.67-9.8,3.12-11.14,4.23-15.37l32.3-107.16c2.9-10.25,4.45-16.49,5.12-24.06h52.35c-3.12,6.68-5.12,11.81-10.69,27.18l-47.23,134.12c-3.79,10.92-6.02,18.49-7.13,24.06h-57.92c-1.11-5.79-3.34-13.37-7.13-24.06l-14.11-39.89"/>
      <path class="cls-4" d="M653.94,290.04v-46.06c0-13.81-.45-21.61-1.78-32.53,9.13.45,15.37.67,32.75.67h71.07c15.15,0,22.72-.45,33.19-1.56v41.66c-10.25-1.11-18.27-1.56-33.19-1.56h-57.92v13.53l-44.11,25.85ZM722,283.41h24.17c14.7,0,20.05-.22,33.42-1.56v41.22c-10.47-1.11-18.04-1.56-33.42-1.56h-48.12v37.43h57.48c16.93,0,26.73-.45,36.31-1.56v41.66c-9.58-1.11-17.6-1.56-36.76-1.56h-70.18c-16.93,0-23.17.22-32.75.67,1.34-8.91,1.78-17.15,1.78-32.53v-40.4l68.06-41.81ZM698.06,283.41"/>
    </g>
  </g>
</svg>