<?xml version="1.0" encoding="UTF-8"?>
<svg xmlns="http://www.w3.org/2000/svg" version="1.1" viewBox="0 0 792 612">
  <defs>
    <style>
      .cls-1 {
        fill: #12163f;
      }

      .cls-1, .cls-2, .cls-3, .cls-4, .cls-5, .cls-6 {
        stroke-width: 0px;
      }

      .cls-2 {
        fill: #3b7ec0;
      }

      .cls-3 {
        fill: #12163e;
      }

      .cls-4 {
        fill: #f36f26;
      }

      .cls-5 {
        fill: #fff;
      }

      .cls-7 {
        display: none;
      }

      .cls-6 {
        fill: #66a5d9;
      }
    </style>
  </defs>
  <g id="Layer_2" data-name="Layer 2" class="cls-7">
    <rect class="cls-1" x="-.31" y="88.03" width="792" height="436.55"/>
  </g>
  <g id="Layer_1" data-name="Layer 1" class="cls-7">
    <g>
      <path class="cls-3" d="M150.99,217.59c-3.8-18.2-14.4-27.2-31.6-27.2-24.4,0-38.6,19.2-38.6,52.2s14.8,52.4,39.6,52.4c11,0,20.4-4.6,26.2-12.6,3.4-4.8,4.8-8.8,6-17.2l41.6,6.2c-3.8,17-8.2,26.8-16.6,36.6-12.4,14.2-31.8,21.8-56,21.8s-45-7.6-59.2-22c-14.8-15-23.2-38.4-23.2-65.2s8.4-50.2,24.2-65.8c13.8-13.4,34-20.8,57.4-20.8,25.8,0,46,8.8,59,26.2,6.4,8.2,9.8,15.6,12.4,27.4l-41.2,8Z"/>
      <path class="cls-3" d="M213.79,230.37v-41.19c0-13.8-.4-21-1.6-29.6h43c-1.2,9.4-1.6,17.2-1.6,29.6v18.82l-39.8,22.37Z"/>
      <path class="cls-3" d="M285.56,222.39h35.43v-33.2c0-13.8-.4-21.8-1.6-29.6h43c-1.2,8.2-1.6,15.6-1.6,29.6v107.2c0,13,.4,19.8,1.6,29.6h-43c1.2-8.4,1.6-15.8,1.6-29.6v-38.8h-67.4v38.8c0,13,.4,20.6,1.6,29.6h-43c1.2-8.2,1.6-15.6,1.6-29.6v-30.78l71.77-43.22Z"/>
      <path class="cls-5" d="M253.59,222.39"/>
      <path class="cls-4" d="M430.39,159.59c-1.2,8.2-1.6,15-1.6,29.6v107.2c0,13.8.4,21.2,1.6,29.6h-44c1.2-7.8,1.6-16.2,1.6-29.6v-107.2c0-15-.4-20.8-1.6-29.6h44Z"/>
      <polygon class="cls-6" points="475.75 249.46 465.17 219.54 500.35 199.64 509.36 229.54 475.75 249.46"/>
      <path class="cls-2" d="M458.42,200.48l-5.83-16.49c-4-11.6-6-16.6-9.4-24.4h46.8c.8,6.4,2.6,14.2,4.8,21.6l-36.36,19.29Z"/>
      <path class="cls-3" d="M515.18,248.84l8.61,28.55q1.6,5.4,3.8,13.8c2.4-8.8,2.8-10,3.8-13.8l29-96.2c2.6-9.2,4-14.8,4.6-21.6h47c-2.8,6-4.6,10.6-9.6,24.4l-42.4,120.4c-3.4,9.8-5.4,16.6-6.4,21.6h-52c-1-5.2-3-12-6.4-21.6l-12.67-35.81"/>
      <path class="cls-3" d="M626.38,229.54v-41.35c0-12.4-.4-19.4-1.6-29.2,8.2.4,13.8.6,29.4.6h63.8c13.6,0,20.4-.4,29.8-1.4v37.4c-9.2-1-16.4-1.4-29.8-1.4h-52v12.15l-39.6,23.2ZM687.48,223.58h21.7c13.2,0,18-.2,30-1.4v37c-9.4-1-16.2-1.4-30-1.4h-43.2v33.6h51.6c15.2,0,24-.4,32.6-1.4v37.4c-8.6-1-15.8-1.4-33-1.4h-63c-15.2,0-20.8.2-29.4.6,1.2-8,1.6-15.4,1.6-29.2v-36.26l61.1-37.54ZM665.98,223.58"/>
    </g>
    <g>
      <path class="cls-3" d="M49.49,350.34c3.65-1.41,8.87-2.19,13.85-2.19,7.71,0,12.69,2.66,16.17,8.61,2.82,4.7,4.4,11.9,4.4,20.04,0,13.93-4.64,23.17-10.53,26.93v.47c4.31,2.82,6.88,10.33,8.21,21.29,1.82,14.72,3.15,24.89,4.31,28.96h-7.46c-.91-2.97-2.16-12.06-3.73-25.21-1.66-14.56-4.64-20.04-11.2-20.51h-6.8v45.71h-7.21v-104.11ZM56.7,398.4h7.38c7.71,0,12.61-7.98,12.61-20.04,0-13.62-5.22-19.57-12.85-19.73-3.48,0-5.97.63-7.13,1.25v38.51Z"/>
      <path class="cls-3" d="M140.62,404.98h-21.73v38.04h24.22v11.43h-31.43v-105.52h30.19v11.43h-22.97v33.35h21.73v11.27Z"/>
      <path class="cls-3" d="M169.06,437.85c3.23,3.76,7.96,6.89,12.94,6.89,7.38,0,11.69-7.36,11.69-18,0-9.86-2.99-15.5-10.53-20.98-9.12-6.11-14.76-15.03-14.76-29.9,0-16.44,7.22-28.65,18.08-28.65,5.72,0,9.87,2.51,12.36,5.17l-1.99,11.12c-1.82-1.88-5.56-5.01-10.62-5.01-7.63,0-10.53,8.61-10.53,15.81,0,9.86,3.4,14.72,11.11,20.35,9.45,6.89,14.26,15.5,14.26,31,0,16.28-6.39,30.37-19.57,30.37-5.39,0-11.28-2.97-14.26-6.73l1.82-11.43Z"/>
      <path class="cls-3" d="M257.46,404.98h-21.73v38.04h24.22v11.43h-31.43v-105.52h30.19v11.43h-22.97v33.35h21.73v11.27Z"/>
      <path class="cls-3" d="M295.93,421.26l-5.81,33.19h-7.46l18.99-105.52h8.71l19.07,105.52h-7.71l-5.97-33.19h-19.82ZM314.26,410.61l-5.47-30.37c-1.24-6.89-2.07-13.15-2.9-19.26h-.17c-.83,6.26-1.74,12.68-2.82,19.1l-5.47,30.53h16.83Z"/>
      <path class="cls-3" d="M355.22,350.34c3.65-1.41,8.87-2.19,13.85-2.19,7.71,0,12.69,2.66,16.17,8.61,2.82,4.7,4.4,11.9,4.4,20.04,0,13.93-4.64,23.17-10.53,26.93v.47c4.31,2.82,6.88,10.33,8.21,21.29,1.82,14.72,3.15,24.89,4.31,28.96h-7.46c-.91-2.97-2.16-12.06-3.73-25.21-1.66-14.56-4.64-20.04-11.2-20.51h-6.8v45.71h-7.21v-104.11ZM362.43,398.4h7.38c7.71,0,12.61-7.98,12.61-20.04,0-13.62-5.22-19.57-12.85-19.73-3.48,0-5.97.63-7.13,1.25v38.51Z"/>
      <path class="cls-3" d="M456.47,451c-2.65,2.51-7.96,5.01-14.76,5.01-15.76,0-27.62-18.79-27.62-53.39s11.86-55.42,29.19-55.42c6.97,0,11.36,2.82,13.27,4.7l-1.74,11.12c-2.74-2.51-6.63-4.38-11.28-4.38-13.1,0-21.81,15.81-21.81,43.52,0,25.83,7.88,42.43,21.48,42.43,4.4,0,8.87-1.72,11.78-4.38l1.49,10.8Z"/>
      <path class="cls-3" d="M490.3,348.93v44.15h27.03v-44.15h7.3v105.52h-7.3v-49.47h-27.03v49.47h-7.22v-105.52h7.22Z"/>
      <path class="cls-3" d="M589.89,348.93h7.22v94.09h23.88v11.43h-31.1v-105.52Z"/>
      <path class="cls-3" d="M655.65,421.26l-5.81,33.19h-7.46l18.99-105.52h8.71l19.07,105.52h-7.71l-5.97-33.19h-19.82ZM673.97,410.61l-5.47-30.37c-1.24-6.89-2.07-13.15-2.9-19.26h-.17c-.83,6.26-1.74,12.68-2.82,19.1l-5.47,30.53h16.83Z"/>
      <path class="cls-3" d="M714.94,350.34c3.15-1.25,8.13-2.19,13.19-2.19,7.21,0,11.86,2.35,15.34,7.67,2.9,4.07,4.65,10.33,4.65,18.63,0,10.17-3.57,19.1-9.45,23.17v.31c5.31,2.51,11.53,10.8,11.53,26.46,0,9.08-1.91,15.97-4.73,21.14-3.9,6.73-10.2,9.86-19.32,9.86-4.98,0-8.79-.63-11.2-1.25v-103.8ZM722.15,393.55h6.55c7.63,0,12.11-7.51,12.11-17.69,0-12.37-4.98-17.22-12.27-17.22-3.32,0-5.22.47-6.39.94v33.97ZM722.15,444.12c1.41.47,3.48.62,6.05.62,7.46,0,14.35-5.17,14.35-20.51,0-14.4-6.55-20.35-14.43-20.35h-5.97v40.24Z"/>
    </g>
  </g>
  <g id="Layer_3" data-name="Layer 3">
    <g>
      <path class="cls-3" d="M124.07,267.2c-4.22-20.2-15.98-30.19-35.07-30.19-27.08,0-42.84,21.31-42.84,57.93s16.43,58.15,43.95,58.15c12.21,0,22.64-5.1,29.08-13.98,3.77-5.33,5.33-9.77,6.66-19.09l46.17,6.88c-4.22,18.87-9.1,29.74-18.42,40.62-13.76,15.76-35.29,24.19-62.15,24.19s-49.94-8.43-65.7-24.42C9.32,350.66,0,324.69,0,294.95s9.32-55.71,26.86-73.02c15.32-14.87,37.73-23.08,63.7-23.08,28.63,0,51.05,9.77,65.48,29.08,7.1,9.1,10.88,17.31,13.76,30.41l-45.72,8.88Z"/>
      <path class="cls-3" d="M193.77,281.4v-45.71c0-15.32-.44-23.31-1.78-32.85h47.72c-1.33,10.43-1.78,19.09-1.78,32.85v20.89l-44.17,24.82Z"/>
      <path class="cls-3" d="M273.42,272.53h39.32v-36.85c0-15.32-.44-24.19-1.78-32.85h47.72c-1.33,9.1-1.78,17.31-1.78,32.85v118.97c0,14.43.44,21.97,1.78,32.85h-47.72c1.33-9.32,1.78-17.53,1.78-32.85v-43.06h-74.8v43.06c0,14.43.44,22.86,1.78,32.85h-47.72c1.33-9.1,1.78-17.31,1.78-32.85v-34.16l79.65-47.96Z"/>
      <path class="cls-5" d="M237.94,272.53"/>
      <path class="cls-4" d="M434.15,202.83c-1.33,9.1-1.78,16.65-1.78,32.85v118.97c0,15.32.44,23.53,1.78,32.85h-48.83c1.33-8.66,1.78-17.98,1.78-32.85v-118.97c0-16.65-.44-23.08-1.78-32.85h48.83Z"/>
      <polygon class="cls-6" points="484.5 302.58 472.75 269.38 511.8 247.28 521.8 280.47 484.5 302.58"/>
      <path class="cls-2" d="M465.27,248.21l-6.47-18.3c-4.44-12.87-6.66-18.42-10.43-27.08h51.94c.89,7.1,2.89,15.76,5.33,23.97l-40.36,21.41Z"/>
      <path class="cls-3" d="M528.26,301.89l9.55,31.68q1.78,5.99,4.22,15.32c2.66-9.77,3.11-11.1,4.22-15.32l32.18-106.76c2.89-10.21,4.44-16.43,5.1-23.97h52.16c-3.11,6.66-5.1,11.76-10.65,27.08l-47.06,133.62c-3.77,10.88-5.99,18.42-7.1,23.97h-57.71c-1.11-5.77-3.33-13.32-7.1-23.97l-14.06-39.74"/>
      <path class="cls-3" d="M651.67,280.47v-45.89c0-13.76-.44-21.53-1.78-32.41,9.1.44,15.32.67,32.63.67h70.8c15.09,0,22.64-.44,33.07-1.55v41.51c-10.21-1.11-18.2-1.55-33.07-1.55h-57.71v13.48l-43.95,25.75ZM719.48,273.86h24.08c14.65,0,19.98-.22,33.29-1.55v41.06c-10.43-1.11-17.98-1.55-33.29-1.55h-47.94v37.29h57.26c16.87,0,26.64-.44,36.18-1.55v41.51c-9.54-1.11-17.53-1.55-36.62-1.55h-69.92c-16.87,0-23.08.22-32.63.67,1.33-8.88,1.78-17.09,1.78-32.41v-40.25l67.81-41.66ZM695.62,273.86"/>
    </g>
  </g>
</svg>